<svg width="1440" height="80" viewBox="0 0 1440 80" fill="none" xmlns="http://www.w3.org/2000/svg">
<g filter="url(#filter0_i_22618_1432)">
<rect width="1440" height="80" fill="#C4C4C4" fill-opacity="0.01"/>
</g>
<rect x="1160.5" y="19.5" width="175" height="47" rx="23.5" stroke="white"/>
<path d="M1228.58 44.5791C1228.58 44.0166 1228.39 43.583 1227.99 43.2783C1227.59 42.9736 1226.88 42.666 1225.85 42.3555C1224.82 42.0449 1224 41.6992 1223.39 41.3184C1222.22 40.5859 1221.64 39.6309 1221.64 38.4531C1221.64 37.4219 1222.06 36.5723 1222.9 35.9043C1223.74 35.2363 1224.83 34.9023 1226.18 34.9023C1227.07 34.9023 1227.86 35.0664 1228.56 35.3945C1229.26 35.7227 1229.8 36.1914 1230.2 36.8008C1230.6 37.4043 1230.8 38.0752 1230.8 38.8135H1228.58C1228.58 38.1455 1228.37 37.624 1227.95 37.249C1227.54 36.8682 1226.94 36.6777 1226.16 36.6777C1225.43 36.6777 1224.87 36.833 1224.46 37.1436C1224.06 37.4541 1223.87 37.8877 1223.87 38.4443C1223.87 38.9131 1224.08 39.3057 1224.52 39.6221C1224.95 39.9326 1225.66 40.2373 1226.66 40.5361C1227.66 40.8291 1228.46 41.166 1229.06 41.5469C1229.66 41.9219 1230.11 42.3555 1230.39 42.8477C1230.67 43.334 1230.81 43.9053 1230.81 44.5615C1230.81 45.6279 1230.4 46.4775 1229.58 47.1104C1228.76 47.7373 1227.66 48.0508 1226.26 48.0508C1225.33 48.0508 1224.48 47.8809 1223.7 47.541C1222.92 47.1953 1222.32 46.7207 1221.89 46.1172C1221.46 45.5137 1221.25 44.8105 1221.25 44.0078H1223.47C1223.47 44.7344 1223.71 45.2969 1224.19 45.6953C1224.67 46.0938 1225.36 46.293 1226.26 46.293C1227.03 46.293 1227.61 46.1377 1228 45.8271C1228.39 45.5107 1228.58 45.0947 1228.58 44.5791ZM1234.83 47.875H1232.69V38.3652H1234.83V47.875ZM1232.56 35.8955C1232.56 35.5674 1232.66 35.2949 1232.87 35.0781C1233.08 34.8613 1233.38 34.7529 1233.76 34.7529C1234.15 34.7529 1234.45 34.8613 1234.66 35.0781C1234.87 35.2949 1234.97 35.5674 1234.97 35.8955C1234.97 36.2178 1234.87 36.4873 1234.66 36.7041C1234.45 36.915 1234.15 37.0205 1233.76 37.0205C1233.38 37.0205 1233.08 36.915 1232.87 36.7041C1232.66 36.4873 1232.56 36.2178 1232.56 35.8955ZM1236.79 43.0498C1236.79 41.5732 1237.13 40.3955 1237.82 39.5166C1238.52 38.6318 1239.44 38.1895 1240.59 38.1895C1241.67 38.1895 1242.53 38.5674 1243.15 39.3232L1243.25 38.3652H1245.17V47.585C1245.17 48.833 1244.78 49.8174 1244 50.5381C1243.23 51.2588 1242.18 51.6191 1240.86 51.6191C1240.17 51.6191 1239.48 51.4727 1238.82 51.1797C1238.15 50.8926 1237.65 50.5146 1237.3 50.0459L1238.31 48.7627C1238.97 49.542 1239.78 49.9316 1240.74 49.9316C1241.45 49.9316 1242.01 49.7383 1242.42 49.3516C1242.83 48.9707 1243.03 48.4082 1243.03 47.6641V47.0225C1242.42 47.708 1241.6 48.0508 1240.57 48.0508C1239.46 48.0508 1238.55 47.6084 1237.84 46.7236C1237.14 45.8389 1236.79 44.6143 1236.79 43.0498ZM1238.91 43.2344C1238.91 44.1895 1239.11 44.9424 1239.49 45.4932C1239.88 46.0381 1240.43 46.3105 1241.12 46.3105C1241.98 46.3105 1242.62 45.9414 1243.03 45.2031V41.0195C1242.63 40.2988 1242 39.9385 1241.14 39.9385C1240.43 39.9385 1239.88 40.2168 1239.49 40.7734C1239.11 41.3301 1238.91 42.1504 1238.91 43.2344ZM1249.35 38.3652L1249.42 39.4639C1250.12 38.6143 1251.04 38.1895 1252.18 38.1895C1254.16 38.1895 1255.17 39.3232 1255.21 41.5908V47.875H1253.07V41.7139C1253.07 41.1104 1252.94 40.665 1252.68 40.3779C1252.42 40.085 1251.99 39.9385 1251.4 39.9385C1250.54 39.9385 1249.9 40.3281 1249.48 41.1074V47.875H1247.34V38.3652H1249.35ZM1264.15 47.875H1262.01V38.3652H1264.15V47.875ZM1261.88 35.8955C1261.88 35.5674 1261.98 35.2949 1262.19 35.0781C1262.4 34.8613 1262.7 34.7529 1263.08 34.7529C1263.47 34.7529 1263.77 34.8613 1263.98 35.0781C1264.19 35.2949 1264.29 35.5674 1264.29 35.8955C1264.29 36.2178 1264.19 36.4873 1263.98 36.7041C1263.77 36.915 1263.47 37.0205 1263.08 37.0205C1262.7 37.0205 1262.4 36.915 1262.19 36.7041C1261.98 36.4873 1261.88 36.2178 1261.88 35.8955ZM1268.46 38.3652L1268.52 39.4639C1269.23 38.6143 1270.15 38.1895 1271.29 38.1895C1273.27 38.1895 1274.28 39.3232 1274.31 41.5908V47.875H1272.18V41.7139C1272.18 41.1104 1272.05 40.665 1271.78 40.3779C1271.53 40.085 1271.1 39.9385 1270.51 39.9385C1269.65 39.9385 1269.01 40.3281 1268.58 41.1074V47.875H1266.45V38.3652H1268.46Z" fill="white"/>
<path d="M1080.77 48H1078.56V42.3135H1072.84V48H1070.61V35.2031H1072.84V40.5293H1078.56V35.2031H1080.77V48ZM1082.8 43.1572C1082.8 42.2256 1082.99 41.3877 1083.36 40.6436C1083.73 39.8936 1084.25 39.3193 1084.91 38.9209C1085.58 38.5166 1086.35 38.3145 1087.22 38.3145C1088.5 38.3145 1089.54 38.7275 1090.34 39.5537C1091.14 40.3799 1091.57 41.4756 1091.64 42.8408L1091.65 43.3418C1091.65 44.2793 1091.46 45.1172 1091.1 45.8555C1090.74 46.5938 1090.23 47.165 1089.55 47.5693C1088.89 47.9736 1088.11 48.1758 1087.23 48.1758C1085.89 48.1758 1084.82 47.7305 1084.01 46.8398C1083.21 45.9434 1082.8 44.751 1082.8 43.2627V43.1572ZM1084.94 43.3418C1084.94 44.3203 1085.14 45.0879 1085.55 45.6445C1085.95 46.1953 1086.51 46.4707 1087.23 46.4707C1087.95 46.4707 1088.51 46.1895 1088.91 45.627C1089.32 45.0645 1089.52 44.2412 1089.52 43.1572C1089.52 42.1963 1089.31 41.4346 1088.89 40.8721C1088.48 40.3096 1087.92 40.0283 1087.22 40.0283C1086.52 40.0283 1085.96 40.3066 1085.55 40.8633C1085.14 41.4141 1084.94 42.2402 1084.94 43.3418ZM1095.46 38.4902L1095.52 39.4834C1096.19 38.7041 1097.1 38.3145 1098.26 38.3145C1099.54 38.3145 1100.41 38.8008 1100.87 39.7734C1101.57 38.8008 1102.54 38.3145 1103.79 38.3145C1104.84 38.3145 1105.62 38.6045 1106.13 39.1846C1106.65 39.7646 1106.91 40.6201 1106.92 41.751V48H1104.79V41.8125C1104.79 41.209 1104.65 40.7666 1104.39 40.4854C1104.13 40.2041 1103.69 40.0635 1103.08 40.0635C1102.59 40.0635 1102.2 40.1953 1101.88 40.459C1101.58 40.7168 1101.37 41.0566 1101.24 41.4785L1101.25 48H1099.12V41.7422C1099.09 40.623 1098.52 40.0635 1097.4 40.0635C1096.55 40.0635 1095.94 40.4121 1095.58 41.1094V48H1093.45V38.4902H1095.46ZM1113.3 48.1758C1111.95 48.1758 1110.85 47.751 1110.01 46.9014C1109.17 46.0459 1108.75 44.9092 1108.75 43.4912V43.2275C1108.75 42.2783 1108.93 41.4316 1109.29 40.6875C1109.66 39.9375 1110.18 39.3545 1110.84 38.9385C1111.5 38.5225 1112.24 38.3145 1113.06 38.3145C1114.35 38.3145 1115.35 38.7275 1116.05 39.5537C1116.76 40.3799 1117.12 41.5488 1117.12 43.0605V43.9219H1110.9C1110.97 44.707 1111.23 45.3281 1111.68 45.7852C1112.15 46.2422 1112.73 46.4707 1113.42 46.4707C1114.4 46.4707 1115.2 46.0752 1115.82 45.2842L1116.97 46.3828C1116.59 46.9512 1116.08 47.3936 1115.44 47.71C1114.8 48.0205 1114.09 48.1758 1113.3 48.1758ZM1113.05 40.0283C1112.46 40.0283 1111.99 40.2334 1111.62 40.6436C1111.27 41.0537 1111.04 41.625 1110.94 42.3574H1115.01V42.1992C1114.96 41.4844 1114.77 40.9453 1114.44 40.582C1114.1 40.2129 1113.64 40.0283 1113.05 40.0283Z" fill="white"/>
<path fill-rule="evenodd" clip-rule="evenodd" d="M1126 80H1058V77H1126V80Z" fill="white"/>
<path d="M104.547 50V48.291L106.061 47.998V37.793L104.547 37.5V35.7812H108.951L115.143 45.6445L115.201 45.6348V37.793L113.385 37.5V35.7812H119.273V37.5L117.75 37.793V50H114.996L108.668 40.2344L108.609 40.2441V47.998L110.436 48.291V50H104.547ZM125.338 50.2051C124.322 50.2051 123.437 49.9837 122.682 49.541C121.933 49.0918 121.35 48.4766 120.934 47.6953C120.523 46.9141 120.318 46.0221 120.318 45.0195V44.6289C120.318 43.5807 120.514 42.653 120.904 41.8457C121.295 41.0319 121.845 40.3939 122.555 39.9316C123.271 39.4629 124.114 39.2318 125.084 39.2383C126.51 39.2383 127.6 39.6582 128.355 40.498C129.111 41.3314 129.488 42.5033 129.488 44.0137V45.5664H123.277L123.258 45.625C123.31 46.3216 123.541 46.8945 123.951 47.3438C124.361 47.793 124.944 48.0176 125.699 48.0176C126.22 48.0176 126.705 47.9525 127.154 47.8223C127.61 47.6855 128.053 47.487 128.482 47.2266L129.254 48.9844C128.818 49.3359 128.268 49.6289 127.604 49.8633C126.946 50.0911 126.191 50.2051 125.338 50.2051ZM123.297 43.6816H126.822V43.4277C126.822 42.7897 126.689 42.2852 126.422 41.9141C126.161 41.5365 125.732 41.3477 125.133 41.3477C124.56 41.3477 124.124 41.5658 123.824 42.002C123.525 42.4316 123.339 42.9753 123.268 43.6328L123.297 43.6816ZM134.264 50L131.803 41.3867L130.514 41.1523V39.4336H135.621V41.1426L134.508 41.3574L135.484 45.4688L135.68 46.2793H135.738L136.002 45.4688L138.17 39.4336H140.084L142.184 45.5469L142.457 46.4062H142.516L142.77 45.5469L143.922 41.3672L142.691 41.1426V39.4336H147.691V41.1523L146.461 41.3867L143.775 50H141.373L139.439 44.7656L139.098 43.6035H139.039L138.697 44.7754L136.793 50H134.264ZM153.131 50.2051C152.343 50.2051 151.607 50.1302 150.924 49.9805C150.247 49.8307 149.596 49.6159 148.971 49.3359L148.941 46.3477H150.924L151.305 47.8711C151.526 47.9818 151.767 48.0697 152.027 48.1348C152.294 48.1999 152.597 48.2324 152.936 48.2324C153.574 48.2324 154.023 48.1283 154.283 47.9199C154.544 47.7116 154.674 47.4512 154.674 47.1387C154.674 46.8457 154.534 46.5885 154.254 46.3672C153.974 46.1393 153.424 45.9408 152.604 45.7715C151.347 45.5111 150.423 45.1074 149.83 44.5605C149.244 44.0137 148.951 43.3138 148.951 42.4609C148.951 41.8815 149.098 41.3477 149.391 40.8594C149.69 40.3711 150.143 39.9837 150.748 39.6973C151.36 39.4043 152.141 39.2578 153.092 39.2578C153.886 39.2578 154.612 39.3359 155.27 39.4922C155.934 39.6419 156.49 39.8405 156.939 40.0879L156.969 42.9785H154.996L154.693 41.5918C154.316 41.3314 153.84 41.2012 153.268 41.2012C152.773 41.2012 152.389 41.3053 152.115 41.5137C151.848 41.7155 151.715 41.9727 151.715 42.2852C151.715 42.5586 151.832 42.806 152.066 43.0273C152.307 43.2422 152.831 43.4408 153.639 43.623C154.947 43.9225 155.901 44.3229 156.5 44.8242C157.099 45.319 157.398 46.0156 157.398 46.9141C157.398 47.8971 157.04 48.6914 156.324 49.2969C155.615 49.9023 154.55 50.2051 153.131 50.2051ZM158.629 50V48.291L160.143 47.998V37.793L158.629 37.5V35.7812H169.664V39.6191H167.477L167.35 37.9785H162.994V41.5527H167.809V43.75H162.994V47.8125H167.584L167.711 46.1133H169.879V50H158.629ZM171.148 50V48.291L172.506 48.1152L175.533 44.707L172.672 41.3184L171.393 41.1523V39.4336H176.627V41.0742L175.807 41.2012L177.34 43.2129L178.873 41.2012L177.965 41.0742V39.4336H183.014V41.1523L181.832 41.3184L179.127 44.5898L182.145 48.1152L183.443 48.291V50H178.023V48.3691L178.941 48.2422L177.311 46.2207L175.719 48.252L176.617 48.3691V50H171.148ZM184.293 54.0625V52.3438L185.67 52.0508V41.4453L184.146 41.1523V39.4336H188.287L188.424 40.6641C188.736 40.2083 189.114 39.8568 189.557 39.6094C189.999 39.362 190.527 39.2383 191.139 39.2383C191.992 39.2383 192.721 39.4727 193.326 39.9414C193.932 40.4036 194.394 41.0514 194.713 41.8848C195.038 42.7181 195.201 43.6914 195.201 44.8047V45.0098C195.201 46.0514 195.038 46.9629 194.713 47.7441C194.387 48.5189 193.919 49.1243 193.307 49.5605C192.701 49.9902 191.972 50.2051 191.119 50.2051C190.006 50.2051 189.137 49.8014 188.512 48.9941V52.0508L189.889 52.3438V54.0625H184.293ZM190.27 48.0176C190.999 48.0176 191.526 47.7474 191.852 47.207C192.184 46.6667 192.35 45.9342 192.35 45.0098V44.8047C192.35 43.8086 192.18 43.0013 191.842 42.3828C191.503 41.7643 190.973 41.4551 190.25 41.4551C189.456 41.4551 188.876 41.7936 188.512 42.4707V47.0996C188.87 47.7116 189.456 48.0176 190.27 48.0176ZM196.119 50V48.291L197.496 47.998V36.7773L195.973 36.4844V34.7656H200.348V47.998L201.725 48.291V50H196.119ZM207.506 50.2051C206.458 50.2051 205.559 49.9772 204.811 49.5215C204.068 49.0658 203.499 48.4342 203.102 47.627C202.704 46.8132 202.506 45.8789 202.506 44.8242V44.6191C202.506 43.571 202.704 42.6432 203.102 41.8359C203.499 41.0221 204.068 40.3874 204.811 39.9316C205.559 39.4694 206.451 39.2383 207.486 39.2383C208.528 39.2383 209.42 39.4661 210.162 39.9219C210.911 40.3776 211.484 41.0124 211.881 41.8262C212.278 42.6335 212.477 43.5645 212.477 44.6191V44.8242C212.477 45.8789 212.278 46.8132 211.881 47.627C211.484 48.4342 210.914 49.0658 210.172 49.5215C209.43 49.9772 208.541 50.2051 207.506 50.2051ZM207.506 48.0176C208.242 48.0176 208.779 47.7246 209.117 47.1387C209.462 46.5527 209.635 45.7812 209.635 44.8242V44.6191C209.635 43.6816 209.462 42.9167 209.117 42.3242C208.772 41.7318 208.229 41.4355 207.486 41.4355C206.744 41.4355 206.204 41.7318 205.865 42.3242C205.527 42.9167 205.357 43.6816 205.357 44.6191V44.8242C205.357 45.7878 205.527 46.5625 205.865 47.1484C206.204 47.7279 206.751 48.0176 207.506 48.0176ZM213.971 50V48.291L215.338 47.998V41.4453L213.824 41.1523V39.4336H217.994L218.102 40.7422L218.121 40.9766C218.642 39.8177 219.423 39.2383 220.465 39.2383C220.634 39.2383 220.816 39.2513 221.012 39.2773C221.214 39.3034 221.396 39.3424 221.559 39.3945L221.256 42.0215L219.84 41.9434C219.436 41.9238 219.107 41.9922 218.854 42.1484C218.606 42.3047 218.385 42.5293 218.189 42.8223V47.998L219.557 48.291V50H213.971ZM227.271 50.2051C226.256 50.2051 225.37 49.9837 224.615 49.541C223.867 49.0918 223.284 48.4766 222.867 47.6953C222.457 46.9141 222.252 46.0221 222.252 45.0195V44.6289C222.252 43.5807 222.447 42.653 222.838 41.8457C223.229 41.0319 223.779 40.3939 224.488 39.9316C225.204 39.4629 226.048 39.2318 227.018 39.2383C228.443 39.2383 229.534 39.6582 230.289 40.498C231.044 41.3314 231.422 42.5033 231.422 44.0137V45.5664H225.211L225.191 45.625C225.243 46.3216 225.475 46.8945 225.885 47.3438C226.295 47.793 226.878 48.0176 227.633 48.0176C228.154 48.0176 228.639 47.9525 229.088 47.8223C229.544 47.6855 229.986 47.487 230.416 47.2266L231.188 48.9844C230.751 49.3359 230.201 49.6289 229.537 49.8633C228.88 50.0911 228.124 50.2051 227.271 50.2051ZM225.23 43.6816H228.756V43.4277C228.756 42.7897 228.622 42.2852 228.355 41.9141C228.095 41.5365 227.665 41.3477 227.066 41.3477C226.493 41.3477 226.057 41.5658 225.758 42.002C225.458 42.4316 225.273 42.9753 225.201 43.6328L225.23 43.6816ZM232.955 50V48.291L234.322 47.998V41.4453L232.809 41.1523V39.4336H236.979L237.086 40.7422L237.105 40.9766C237.626 39.8177 238.408 39.2383 239.449 39.2383C239.618 39.2383 239.801 39.2513 239.996 39.2773C240.198 39.3034 240.38 39.3424 240.543 39.3945L240.24 42.0215L238.824 41.9434C238.421 41.9238 238.092 41.9922 237.838 42.1484C237.59 42.3047 237.369 42.5293 237.174 42.8223V47.998L238.541 48.291V50H232.955Z" fill="white"/>
<defs>
<filter id="filter0_i_22618_1432" x="0" y="0" width="1440" height="80" filterUnits="userSpaceOnUse" color-interpolation-filters="sRGB">
<feFlood flood-opacity="0" result="BackgroundImageFix"/>
<feBlend mode="normal" in="SourceGraphic" in2="BackgroundImageFix" result="shape"/>
<feColorMatrix in="SourceAlpha" type="matrix" values="0 0 0 0 0 0 0 0 0 0 0 0 0 0 0 0 0 0 127 0" result="hardAlpha"/>
<feOffset dy="-1"/>
<feComposite in2="hardAlpha" operator="arithmetic" k2="-1" k3="1"/>
<feColorMatrix type="matrix" values="0 0 0 0 1 0 0 0 0 1 0 0 0 0 1 0 0 0 0.2 0"/>
<feBlend mode="normal" in2="shape" result="effect1_innerShadow_22618_1432"/>
</filter>
</defs>
</svg>
